<?xml version="1.0" encoding="utf-8"?>
<!-- Generator: Adobe Illustrator 25.4.1, SVG Export Plug-In . SVG Version: 6.00 Build 0)  -->
<svg version="1.1" id="Layer_1" xmlns="http://www.w3.org/2000/svg" xmlns:xlink="http://www.w3.org/1999/xlink" x="0px" y="0px"
	 viewBox="0 0 200 130" style="enable-background:new 0 0 200 130;" xml:space="preserve">
<style type="text/css">
	.st0{fill:none;stroke:#533875;stroke-width:3;stroke-miterlimit:10;}
	.st1{fill:none;stroke:#000000;stroke-width:3;stroke-miterlimit:10;}
	.st2{fill:#533875;}
</style>
<g>
	<g>
		<path d="M85.7,111.4l1.91-0.32h0.36l2.09,0.32v0.86H85.7V111.4z M86.84,98.53l1.12,0.52l-2.18-0.32v-0.86h2.72l7.53,12.27v2.28
			h-0.58L86.84,98.53z M87.24,97.86l0.91,0.86v13.54h-0.91V97.86z M93.23,97.86h4.35v0.86l-1.81,0.32H95.4l-2.18-0.32V97.86z
			 M95.13,97.86h0.91v14.54l-0.91-1.07V97.86z"/>
		<path d="M102.11,106.63c0.76-0.32,1.91-0.71,2.81-0.9v0.77c-0.82,0.19-1.89,0.6-2.43,0.86c-1.63,0.75-1.81,1.57-1.81,2.19
			c0,1.14,0.64,1.59,1.47,1.59c0.63,0,1-0.28,2.14-1.25l0.36-0.32l0.25,0.45l-0.53,0.62c-1.09,1.29-1.71,1.89-2.81,1.89
			c-1.32,0-2.43-0.9-2.43-2.69C99.14,108.65,99.68,107.68,102.11,106.63z M104.2,110.28v-4.9c0-2.11-0.51-2.62-1.71-2.62
			c-0.42,0-0.96,0.06-1.63,0.39l0.73-0.67l-0.47,1.85c-0.16,0.62-0.44,0.97-0.93,0.97c-0.49,0-0.78-0.32-0.82-0.86
			c0.34-1.63,1.69-2.64,3.5-2.64c1.87,0,2.78,1.01,2.78,3.72v4.55c0,0.97,0.25,1.31,0.67,1.31c0.31,0,0.51-0.19,0.71-0.47l0.36,0.47
			c-0.44,0.82-0.93,1.1-1.54,1.1C104.85,112.47,104.2,111.61,104.2,110.28z"/>
		<path d="M112.45,111.35c0.93,0,1.56-0.47,2.4-1.74l0.16,0.58c-0.69,1.46-1.54,2.34-2.96,2.34c-2.21,0-3.7-2.17-3.7-5.29
			c0-3.27,1.63-5.46,3.87-5.46c1.03,0,1.92,0.49,2.87,2.17l-0.18,0.56c-1.05-1.2-1.78-1.55-2.47-1.55c-1.36,0-2.54,1.29-2.54,4.23
			C109.89,110.06,110.98,111.35,112.45,111.35z M117.49,111.5v0.75l-2.78,0.21l-0.18-2.19v-6.29l0.05-0.28v-5.41l-1.56-0.21v-0.75
			l2.78-0.97l0.25,0.17l-0.07,3.05v12.68l-0.29-1.1L117.49,111.5z"/>
		<path d="M119.78,112.26c0.04-0.97,0.05-3.18,0.05-4.51v-1.01c0-1.18-0.02-1.85-0.05-2.71l-1.49-0.19v-0.75l2.74-1.29l0.27,0.21
			l-0.05,2.9v2.84c0,1.33,0.02,3.54,0.05,4.51H119.78z M122.57,111.5v0.75h-4.17v-0.75l2-0.43h0.36L122.57,111.5z M119.32,98.01
			c0-0.82,0.53-1.35,1.2-1.35s1.2,0.54,1.2,1.35c0,0.79-0.53,1.35-1.2,1.35S119.32,98.81,119.32,98.01z"/>
		<path d="M126.96,106.63c0.76-0.32,1.9-0.71,2.81-0.9v0.77c-0.82,0.19-1.89,0.6-2.43,0.86c-1.63,0.75-1.81,1.57-1.81,2.19
			c0,1.14,0.63,1.59,1.47,1.59c0.63,0,1-0.28,2.14-1.25l0.36-0.32l0.25,0.45l-0.53,0.62c-1.09,1.29-1.71,1.89-2.81,1.89
			c-1.32,0-2.43-0.9-2.43-2.69C123.98,108.65,124.53,107.68,126.96,106.63z M129.04,110.28v-4.9c0-2.11-0.51-2.62-1.71-2.62
			c-0.42,0-0.96,0.06-1.63,0.39l0.73-0.67l-0.47,1.85c-0.16,0.62-0.44,0.97-0.93,0.97c-0.49,0-0.78-0.32-0.82-0.86
			c0.35-1.63,1.69-2.64,3.5-2.64c1.87,0,2.78,1.01,2.78,3.72v4.55c0,0.97,0.25,1.31,0.67,1.31c0.31,0,0.51-0.19,0.71-0.47l0.36,0.47
			c-0.44,0.82-0.93,1.1-1.54,1.1C129.7,112.47,129.04,111.61,129.04,110.28z"/>
		<path d="M136.7,111.4l1.81-0.32h0.36l2,0.32v0.86h-4.17V111.4z M142.1,97.75h1.09l4.17,14.5h-1.69l-3.65-12.87h0.42l-3.7,12.87
			h-0.85L142.1,97.75z M139.98,106.56h4.9l0.29,0.99h-5.48L139.98,106.56z M143.55,111.4l2.29-0.32h0.36l2.25,0.32v0.86h-4.9V111.4z
			"/>
		<path d="M150.72,112.26c0.04-0.97,0.05-3.18,0.05-4.51v-1.01c0-1.18-0.02-1.85-0.05-2.71l-1.45-0.19v-0.75l2.47-1.29l0.27,0.21
			l0.22,2.49v3.24c0,1.33,0.02,3.54,0.05,4.51H150.72z M153.55,111.5v0.75h-4.17v-0.75l1.99-0.43h0.36L153.55,111.5z M157.74,105.77
			v1.98c0,1.38,0.02,3.54,0.05,4.51h-1.56c0.04-0.97,0.05-3.14,0.05-4.51v-1.8c0-2-0.44-2.64-1.53-2.64c-0.91,0-1.65,0.43-2.68,1.48
			h-0.38v-0.97h0.92l-0.78,0.39c0.85-1.35,2.3-2.41,3.59-2.41C156.99,101.79,157.74,102.93,157.74,105.77z M157.25,111.07l1.81,0.43
			v0.75h-4.17v-0.75l2-0.43H157.25z"/>
		<path d="M161.65,106.73c0-1.18-0.02-1.85-0.05-2.71l-1.45-0.19v-0.75l2.67-1.29l0.27,0.21l-0.05,2.9v5.13
			c0,3.57-0.11,5.16-1.07,6.38c-0.56,0.73-1.18,1.2-2.25,1.2c-1.09,0-1.58-0.67-1.58-1.22c0.16-0.56,0.53-0.84,1.05-0.84
			c0.47,0,0.85,0.21,1.34,0.62l0.82,0.69l-2.34,0.37v-0.84c0.18,0.3,0.69,0.49,1.05,0.49c0.51,0,0.93-0.13,1.2-0.92
			c0.29-0.9,0.4-2.62,0.4-5.93V106.73z M161.16,98.01c0-0.82,0.53-1.35,1.2-1.35c0.67,0,1.2,0.54,1.2,1.35
			c0,0.79-0.53,1.35-1.2,1.35C161.69,99.37,161.16,98.81,161.16,98.01z"/>
		<path d="M167.75,108.45c0,1.91,0.47,2.58,1.47,2.58c0.93,0,1.87-0.54,2.78-1.61h0.38v1.1h-0.92l0.63-0.32
			c-1.04,1.65-2.27,2.34-3.45,2.34c-1.45,0-2.36-1.03-2.34-3.87l0.05-5.67l0.38,0.41l-1.69-0.43v-0.75l2.61-0.28l0.18,0.21
			l-0.09,3.01V108.45z M172.06,112.43l-0.25-2.51l0.05-6.92l0.38,0.41l-1.69-0.43v-0.75l2.58-0.28l0.18,0.21l-0.05,3.01v6.42
			l-0.44-0.52l1.69,0.43v0.75L172.06,112.43z"/>
		<path d="M177.23,112.26c0.04-0.97,0.05-3.18,0.05-4.51v-1.01c0-1.18-0.02-1.85-0.05-2.71l-1.45-0.19v-0.75l2.47-1.29l0.27,0.21
			l0.22,2.49v3.24c0,1.33,0.02,3.54,0.05,4.51H177.23z M180.06,111.5v0.75h-4.17v-0.75l2-0.43h0.36L180.06,111.5z M184.18,105.77
			v1.98c0,1.38,0.02,3.54,0.05,4.51h-1.56c0.04-0.97,0.05-3.14,0.05-4.51v-1.8c0-2-0.44-2.64-1.52-2.64c-0.89,0-1.6,0.43-2.61,1.48
			h-0.38v-0.97h0.93l-0.78,0.39c0.85-1.35,2.25-2.41,3.52-2.41C183.44,101.79,184.18,102.93,184.18,105.77z M183.69,111.07
			l1.81,0.43v0.75h-4.17v-0.75l2-0.43H183.69z M189.62,105.53v2.21c0,1.38,0.02,3.54,0.05,4.51h-1.56c0.04-0.97,0.05-3.14,0.05-4.51
			v-1.85c0-2.02-0.47-2.6-1.54-2.6c-0.82,0-1.58,0.39-2.59,1.48h-0.44v-0.75h0.98l-0.84,0.17c0.94-1.59,2.29-2.41,3.57-2.41
			C188.77,101.79,189.62,102.87,189.62,105.53z M189.13,111.07l1.81,0.43v0.75h-4.17v-0.75l1.99-0.43H189.13z"/>
	</g>
</g>
<polygon class="st0" points="98.45,60.56 52.91,11.56 7.31,60.62 52.85,109.62 "/>
<polygon class="st1" points="62.3,11.7 16.7,60.76 62.25,109.76 107.85,60.71 "/>
<g>
	<g>
		<path class="st2" d="M39.69,69.78l3.1-0.44h0.59l3.4,0.44v1.16h-7.09V69.78z M41.55,52.37l1.83,0.7l-3.55-0.44v-1.16h4.43
			l12.27,16.6v3.08h-0.95L41.55,52.37z M42.2,51.46l1.48,1.16v18.31H42.2V51.46z M51.96,51.46h7.09v1.16l-2.96,0.44H55.5l-3.55-0.44
			V51.46z M55.06,51.46h1.48v19.68l-1.48-1.45V51.46z"/>
		<path d="M60.38,69.78l2.96-0.44h0.59l3.25,0.44v1.16h-6.8V69.78z M69.19,51.32h1.77l6.8,19.62h-2.75l-5.94-17.41h0.68l-6.03,17.41
			h-1.39L69.19,51.32z M65.73,63.24h7.98l0.47,1.34h-8.93L65.73,63.24z M71.56,69.78l3.72-0.44h0.59l3.66,0.44v1.16h-7.98V69.78z"/>
	</g>
</g>
<line class="st0" x1="52.64" y1="11.45" x2="98.9" y2="60.67"/>
<path class="st0" d="M98.58,60.54C86.8,73.2,75.23,85.79,63.24,98.9c-3.64,3.78-6.85,7.56-10.49,11.11"/>
</svg>
